<?xml version="1.0" encoding="UTF-8"?>
<svg version="1.1" xmlns="http://www.w3.org/2000/svg" width="1254" height="1254">
<path d="M0 0 C413.82 0 827.64 0 1254 0 C1254 413.82 1254 827.64 1254 1254 C840.18 1254 426.36 1254 0 1254 C0 840.18 0 426.36 0 0 Z " fill="#F9F9F9" transform="translate(0,0)"/>
<path d="M0 0 C0.96808594 0.43054688 1.93617188 0.86109375 2.93359375 1.3046875 C5.6348336 2.51106646 8.3171101 3.75348808 11 5 C12.45684244 5.64918944 13.91512652 6.29515567 15.375 6.9375 C26.74458796 11.98844935 37.95510047 17.35726866 49.15429688 22.7734375 C54.39404233 25.30072948 59.6403576 27.73527639 65 30 C74.87127184 34.39388137 84.62977368 39.03596321 94.40429688 43.63964844 C96.50342499 44.62797995 98.60323706 45.61484663 100.703125 46.6015625 C101.64711151 47.04696884 101.64711151 47.04696884 102.61016846 47.50137329 C106.70575714 49.42474054 110.8351092 51.23406851 115 53 C122.35465253 56.2623302 129.63082421 59.69342059 136.89794922 63.14526367 C140.0538239 64.63900497 143.20998971 66.08965314 146.421875 67.4609375 C151.67601028 69.72090398 156.81435136 72.21445255 161.97265625 74.68359375 C162.77574219 75.06644531 163.57882812 75.44929688 164.40625 75.84375 C165.12103516 76.18599609 165.83582031 76.52824219 166.57226562 76.88085938 C169.07667397 78.03534528 171.60977057 79.11244185 174.14666748 80.19311523 C177.26469153 81.55060833 180.33008764 83.01915094 183.3984375 84.484375 C184.84417599 85.17127371 186.28997964 85.85803527 187.73583984 86.54467773 C188.86804962 87.08304764 188.86804962 87.08304764 190.02313232 87.6322937 C202.75593392 93.6834558 215.52455877 99.64046207 228.375 105.4375 C254.42966114 117.20655805 280.19051313 129.58623209 305.86630249 142.15725708 C316.62244257 147.42173457 327.41770946 152.55630577 338.32763672 157.49609375 C345.56344023 160.77698016 352.67593476 164.2531397 359.75439453 167.85888672 C364.47326466 170.2567992 369.20565545 172.62782354 373.9375 175 C374.96343262 175.515625 375.98936523 176.03125 377.04638672 176.5625 C381.70550048 178.89465311 386.37060719 181.19622462 391.10546875 183.37109375 C392.26091187 183.90186523 392.26091187 183.90186523 393.43969727 184.44335938 C394.83857124 185.07973686 396.24112345 185.70812741 397.64819336 186.32617188 C403.49999944 188.97969582 408.39912113 192.32592545 411.75 197.9375 C412.13671875 198.56527344 412.5234375 199.19304687 412.921875 199.83984375 C415.41660068 204.83833396 416.25014463 209.22670459 416.25168228 214.79389095 C416.25458916 215.45549421 416.25749604 216.11709746 416.26049101 216.7987493 C416.2677838 219.01338197 416.26085113 221.22773695 416.25396729 223.44236755 C416.25627201 225.04710582 416.25944861 226.65184303 416.26342177 228.25657803 C416.27177692 232.66474855 416.26764121 237.07283256 416.26144934 241.4810034 C416.25692878 246.23568347 416.26390667 250.99034854 416.26940918 255.74502563 C416.27830925 265.05912463 416.27637837 274.37319141 416.2705839 283.68729167 C416.26606956 291.25669529 416.26545352 298.82608988 416.26763153 306.39549446 C416.267938 307.47227598 416.26824446 308.54905751 416.26856022 309.65846877 C416.26919966 311.84585245 416.26984809 314.03323613 416.2705054 316.22061981 C416.27621056 336.73918685 416.26964802 357.25773603 416.25890467 377.77630014 C416.24997026 395.38513678 416.25151993 412.99394704 416.26074219 430.6027832 C416.27144372 451.04572088 416.27565988 471.4886429 416.26951766 491.93158299 C416.26888056 494.11128525 416.26825181 496.29098751 416.26763153 498.47068977 C416.26732298 499.54317376 416.26701443 500.61565774 416.26669653 501.72064124 C416.26496914 509.28112037 416.26788566 516.84158958 416.27259064 524.40206718 C416.27819821 533.61559689 416.27668565 542.82909252 416.26602915 552.04261833 C416.26077061 556.74418994 416.25871882 561.44570472 416.26532745 566.14727592 C416.27128526 570.45090951 416.26801453 574.75443355 416.25737235 579.0580572 C416.2551376 580.61519153 416.25627629 582.17233512 416.26112393 583.72946351 C416.26720933 585.84652972 416.26096355 587.96322118 416.25168228 590.08026791 C416.25135758 591.2560471 416.25103287 592.43182629 416.25069833 593.64323515 C415.97101339 597.38812073 415.14417446 600.43413411 414 604 C390.03797326 604.58494406 366.19432015 602.91691574 342.28948593 601.45744324 C336.51925797 601.10687955 330.74848351 600.7655348 324.9777832 600.42285156 C298.42731819 598.8417554 271.88066147 597.1993837 245.33724976 595.50408936 C229.45880949 594.49052545 213.5821273 593.5917688 197.6875 592.875 C186.28550248 592.35765863 174.88848276 591.82894892 163.5 591.0625 C162.45545654 590.99981934 161.41091309 590.93713867 160.3347168 590.87255859 C150.4642091 590.15664849 142.04675157 587.88095922 134 582 C133.19651123 581.41355713 132.39302246 580.82711426 131.56518555 580.22290039 C122.2606476 572.1599121 119.98504256 556.48350261 116.875 545.125 C116.35920199 543.27442451 115.8422811 541.42416162 115.32421875 539.57421875 C114.32718169 536.00842262 113.33608475 532.44107201 112.35058594 528.87207031 C110.26653778 521.33471991 108.10219891 513.82056894 105.93457031 506.30688477 C105.06765963 503.23940691 104.33397473 500.1694775 103.625 497.0625 C101.72914879 489.48857441 99.75922325 483.4468574 93 479 C89.50159103 477.25079551 85.81747654 477.44636934 82 478 C75.9935556 481.62653247 73.16337131 486.82002872 71.29910278 493.51831055 C70.67223224 496.36830393 70.1218174 499.22309773 69.59765625 502.09375 C69.39321396 503.15750854 69.18877167 504.22126709 68.97813416 505.31726074 C68.32844058 508.70949764 67.69489083 512.10449931 67.0625 515.5 C66.43337638 518.82117057 65.80086081 522.14168143 65.16784668 525.46211243 C64.74272312 527.69233992 64.31883236 529.92280274 63.89611816 532.15348816 C62.54598789 539.25003136 61.1212255 546.32661546 59.62890625 553.39453125 C57.52059967 563.3864415 55.52120146 573.39741173 53.5546875 583.41796875 C53.40512289 584.17956928 53.25555828 584.94116982 53.10146141 585.72584915 C51.7090409 592.81770971 50.32034974 599.91029912 48.93310547 607.00317383 C48.16405766 610.93454124 47.39287504 614.8654854 46.62048721 618.79619789 C46.33185688 620.26735633 46.04403238 621.73867315 45.75710678 623.21016502 C44.00769378 632.18190909 42.12089153 641.10779286 40 650 C38.68 650 37.36 650 36 650 C32.66701856 626.35833746 29.67118122 602.68195547 26.77577209 578.98312378 C26.01785254 572.78033371 25.25897684 566.57766077 24.5 560.375 C24.34707489 559.12406555 24.19414978 557.8731311 24.03659058 556.58428955 C22.20413149 541.6058333 20.3255791 526.63809253 18.27954102 511.68725586 C17.05558131 502.66013571 16.04604608 493.61630597 15.07543945 484.55883789 C14.33112162 477.70306439 13.4536917 470.88304092 12.4375 464.0625 C11.33023179 456.62990038 10.47506307 449.20703436 9.76708984 441.7265625 C8.4206154 427.68593287 6.56630799 413.70130017 4.5 399.75 C3.10160139 390.29919404 2.10594074 380.82032353 1.12719727 371.31811523 C0.30363483 363.463301 -0.72287547 355.67099657 -1.9453125 347.86938477 C-2.72553544 342.8795511 -3.42108798 337.89223746 -4 332.875 C-4.07686035 332.21274414 -4.1537207 331.55048828 -4.23291016 330.86816406 C-4.74123153 326.41854031 -5.21459007 321.96564533 -5.68359375 317.51171875 C-5.80798828 316.36525879 -5.93238281 315.21879883 -6.06054688 314.03759766 C-6.30554162 311.77901264 -6.54294753 309.51958697 -6.77148438 307.25927734 C-7.85400736 297.37293965 -9.43259628 288.71669937 -16 281 C-20.38122086 279.53959305 -24.43906233 279.12753447 -29 280 C-33.8851678 283.53204597 -36.3560407 288.81260642 -37.5297699 294.62219238 C-37.72664146 296.0322052 -37.72664146 296.0322052 -37.92749023 297.47070312 C-38.08057144 298.55001099 -38.23365265 299.62931885 -38.39137268 300.74133301 C-38.54968063 301.90950562 -38.70798859 303.07767822 -38.87109375 304.28125 C-39.04233261 305.51290894 -39.21357147 306.74456787 -39.38999939 308.0135498 C-41.42656755 322.82364576 -43.24481742 337.66177482 -45.0625 352.5 C-48.90445518 383.85811689 -48.90445518 383.85811689 -51.05456543 397.74552917 C-51.90479369 403.25569375 -52.58481831 408.75653393 -53.0625 414.3125 C-53.83898524 422.57446309 -54.83903066 430.7827708 -56 439 C-56.49176086 442.48483049 -56.98204849 445.96984936 -57.46923828 449.45532227 C-57.81084743 451.89765486 -58.15534309 454.33958636 -58.50341797 456.78100586 C-59.41904544 463.32139503 -60.21381199 469.86018324 -60.87890625 476.4296875 C-62.17730065 489.18554971 -63.80613913 501.90250303 -65.40405273 514.62353516 C-65.84801174 518.15815137 -66.28863188 521.69317448 -66.72835255 525.22832012 C-68.37810915 538.48090568 -70.06657031 551.72323652 -72.00183105 564.93772888 C-73.07813011 572.36039904 -73.92251033 579.79912866 -74.70733643 587.25753784 C-76.01816684 599.67288508 -77.46542645 612.06392636 -79.125 624.4375 C-79.28347412 625.61948975 -79.44194824 626.80147949 -79.60522461 628.01928711 C-80.65055463 635.69327154 -81.79887283 643.34893044 -83 651 C-83.99 651.33 -84.98 651.66 -86 652 C-87.88922086 646.42612853 -89.27976835 640.85713688 -90.33203125 635.06640625 C-90.59397762 633.64072487 -90.85628797 632.21511034 -91.11889648 630.78955078 C-91.25979706 630.02104797 -91.40069763 629.25254517 -91.54586792 628.46075439 C-92.93018551 620.95970846 -94.36908805 613.46869681 -95.796875 605.97583008 C-96.17986528 603.96302855 -96.56171606 601.95000984 -96.94238281 599.93676758 C-99.22011039 587.89411896 -101.60946747 575.88905702 -104.28158569 563.92698669 C-105.51459351 558.37991357 -106.59616261 552.82849924 -107.54696655 547.22569275 C-107.90503824 544.97340053 -107.90503824 544.97340053 -109 543 C-109.48783885 540.04357903 -109.942035 537.08945015 -110.375 534.125 C-111.35209564 527.66678287 -112.54802564 521.40523824 -114.25 515.09375 C-115.19053617 511.21403829 -115.8428694 507.31094292 -116.5 503.375 C-118.30809811 490.60699321 -118.30809811 490.60699321 -125 480 C-129.25120953 477.48507394 -133.16801097 477.20167138 -138 478 C-146.38313819 483.0615174 -148.59382092 492.18619588 -150.98828125 501.18359375 C-151.38451691 502.63134941 -151.38451691 502.63134941 -151.78875732 504.10835266 C-152.6375883 507.21606013 -153.47494752 510.32673617 -154.3125 513.4375 C-154.89482356 515.57414647 -155.47807818 517.71053941 -156.06225586 519.84667969 C-157.20358258 524.02353395 -158.3411951 528.20136278 -159.47460938 532.38037109 C-161.31792645 539.17564772 -163.17942396 545.96561878 -165.0625 552.75 C-165.31233643 553.6670874 -165.56217285 554.5841748 -165.81958008 555.52905273 C-171.85710812 577.29999572 -171.85710812 577.29999572 -182.00390625 583.9765625 C-198.03315375 592.83914985 -217.43753814 591.57436503 -235.31933594 592.46051025 C-243.44037627 592.86342057 -251.56010709 593.29145039 -259.6796875 593.72265625 C-260.5667614 593.76966927 -261.4538353 593.81668228 -262.36779022 593.86511993 C-278.83631856 594.74171639 -295.29741583 595.72906149 -311.7578125 596.74609375 C-313.00107174 596.82287291 -314.24433098 596.89965206 -315.52526474 596.97875786 C-326.79256475 597.67540309 -338.05957092 598.3767056 -349.32611084 599.08554077 C-395.81346763 602.01020008 -395.81346763 602.01020008 -417.47970581 603.08027267 C-419.19261289 603.16488206 -420.90544874 603.2509513 -422.61819458 603.33876419 C-435.08541536 603.97200685 -447.51773753 604.08810393 -460 604 C-461.26612286 596.18871582 -461.14558665 588.37866466 -461.14044189 580.48916626 C-461.14302813 578.90133987 -461.14604201 577.31351414 -461.1494453 575.72568929 C-461.15748777 571.37346102 -461.15930332 567.02124927 -461.16004276 562.66901445 C-461.16189805 557.97089225 -461.16944761 553.27277853 -461.17617798 548.57466125 C-461.18974072 538.30826321 -461.19578238 528.04186909 -461.20018864 517.77546358 C-461.20295369 511.36373976 -461.20719144 504.95201745 -461.21169281 498.54029465 C-461.22388117 480.78278765 -461.23418239 463.02528186 -461.2375679 445.26777077 C-461.23778747 444.13203702 -461.23800703 442.99630328 -461.23823325 441.82615336 C-461.23845153 440.68773778 -461.23866981 439.5493222 -461.2388947 438.37640917 C-461.23933816 436.06962434 -461.23978473 433.76283952 -461.24023438 431.45605469 C-461.2404558 430.31181512 -461.24067723 429.16757555 -461.24090537 427.98866205 C-461.244855 409.4402105 -461.26231597 390.89179819 -461.2855939 372.34336181 C-461.30930821 353.29330964 -461.32176973 334.24327717 -461.32293582 315.19321001 C-461.32385236 304.4998545 -461.32959975 293.80655018 -461.34775543 283.11320877 C-461.36315725 274.00996655 -461.36827626 264.90679135 -461.36001733 255.80353858 C-461.35611157 251.16028263 -461.35703697 246.51716167 -461.37107468 241.87392235 C-461.38381734 237.62013392 -461.3826129 233.36658185 -461.37048396 229.11279373 C-461.36852765 227.57719662 -461.37160239 226.04158274 -461.38032833 224.50600918 C-461.44852069 211.69033915 -460.31632518 201.42478924 -451 192 C-444.89906196 187.72974308 -438.17348861 184.5041677 -431.4375 181.375 C-421.19270507 176.54715228 -411.01282721 171.59609327 -400.84289551 166.61300659 C-383.74199015 158.23766662 -366.57278972 150.02594352 -349.32344055 141.96139526 C-341.92576118 138.50148849 -334.54321394 135.00971038 -327.16046143 131.51809692 C-320.44211488 128.34157225 -313.72095803 125.17099439 -307 122 C-306.30670593 121.67279968 -305.61341187 121.34559937 -304.89910889 121.00848389 C-288.80161534 113.41227231 -272.66901466 105.905665 -256.44958496 98.57302856 C-244.43606265 93.14104706 -232.48909846 87.575143 -220.578125 81.921875 C-214.50588371 79.04846395 -208.42792575 76.30834412 -202.1652832 73.87426758 C-198.9440818 72.57365621 -195.90206535 71.02672406 -192.8125 69.4375 C-188.26809386 67.10557045 -183.6988028 65.00068201 -179 63 C-176.15554484 61.69004005 -173.32774856 60.34558339 -170.5 59 C-165.37284404 56.56024421 -160.22412942 54.22767048 -155 52 C-151.78584509 50.51475874 -148.58189822 49.00913977 -145.37890625 47.5 C-142.94864478 46.42113248 -140.5782678 45.46072185 -138.0859375 44.55859375 C-133.91323972 43.0233606 -130.01041421 41.09783487 -126.0625 39.0625 C-120.43882771 36.20689608 -114.79866854 33.48514366 -109 31 C-99.88491767 26.98009981 -90.81348643 22.87033667 -81.8046875 18.6171875 C-81.17077591 18.31794876 -80.53686432 18.01871002 -79.88374329 17.71040344 C-79.23592392 17.40458847 -78.58810455 17.0987735 -77.9206543 16.78369141 C-21.17560734 -10.00035134 -21.17560734 -10.00035134 0 0 Z " fill="#9D7EFB" transform="translate(649,70)"/>
<path d="M0 0 C0.66 0 1.32 0 2 0 C3.84946227 6.59167323 4.67173446 13.07455492 5.375 19.875 C6.33724897 28.68570823 7.46848156 37.43691606 8.875 46.1875 C11.29882243 61.36754016 13.16995676 76.61357712 15.0919342 91.86326599 C16.04104725 99.37285251 17.04688047 106.87411123 18.0625 114.375 C19.3375049 123.81180537 20.51865544 133.25616866 21.63446045 142.71295166 C23.309024 156.89426568 25.26213932 171.02187058 27.32455444 185.15176392 C29.54097194 200.37034865 31.48860124 215.61048583 33.26342773 230.88671875 C34.29194281 239.66697196 35.49111517 248.39332535 36.90812683 257.11962891 C38.30964844 265.78896 39.39559922 274.49216987 40.4609375 283.20898438 C42.32578233 299.66756272 42.32578233 299.66756272 50 314 C54.04873996 316.69915997 57.24838034 316.64528168 62 316 C67.37017619 313.25524328 68.94429318 308.37383306 71 303 C72.05036969 299.5315607 72.88766599 296.03367179 73.6875 292.5 C74.00557617 291.17162109 74.00557617 291.17162109 74.33007812 289.81640625 C75.32556584 285.53926347 76.13187267 281.33922161 76.58203125 276.96875 C77 273 77 273 78 271 C78.29321187 269.40760801 78.54920538 267.80832885 78.7890625 266.20703125 C79.71823818 260.44047426 80.83853214 254.72977957 82.0234375 249.01171875 C82.21067886 248.10760254 82.39792023 247.20348633 82.59083557 246.27197266 C82.98303756 244.38211798 83.37575311 242.49236981 83.76895142 240.60272217 C86.63110389 226.835162 89.45991535 213.08282941 91.75341797 199.20751953 C92.78023098 193.05257678 94.08218401 186.99824223 95.49902344 180.92260742 C97.18668605 173.5196041 98.36086005 166.04268182 99.56811523 158.54907227 C100.58203991 152.3198195 101.78071238 146.19513201 103.28125 140.0625 C104.14243919 136.39308521 104.86746652 132.70364765 105.5625 129 C105.68963379 128.32727051 105.81676758 127.65454102 105.94775391 126.96142578 C106.75139285 122.61250676 107.36792227 118.26174779 107.9375 113.875 C108.69370134 108.87911243 109.44627309 105.65526197 113 102 C115.75 101.125 115.75 101.125 118 101 C123.24823149 106.23019633 124.75164809 111.69023865 126.625 118.75 C127.20026146 120.82819681 127.77577971 122.90632256 128.3515625 124.984375 C129.16174884 127.93899155 129.97127124 130.8936535 130.77026367 133.85131836 C131.01752197 134.72925049 131.26478027 135.60718262 131.51953125 136.51171875 C131.73198486 137.28217529 131.94443848 138.05263184 132.16333008 138.84643555 C133.80244482 143.06547002 136.92333788 146.96166894 141 149 C147.27376116 149.52281343 149.87091503 148.99668959 155 145 C157.32513778 142.24545393 157.32513778 142.24545393 159.375 139.1875 C166.66646541 129.21034484 173.66644181 123.61477187 186.09326172 121.46484375 C189.72434303 121.05424685 193.35577572 120.75817882 197 120.5 C198.4587047 120.38542925 199.91736148 120.27024713 201.37597656 120.15454102 C224.42645097 118.38214427 247.52688555 117.17535679 270.60652161 115.84623146 C282.3380286 115.16952854 294.06498994 114.43223299 305.79071045 113.66197205 C313.75406769 113.13923283 321.71775888 112.65977735 329.6875 112.24609375 C332.98763124 112.04392457 332.98763124 112.04392457 336.18115234 111.51367188 C340.26976158 110.96371446 344.29639051 110.71294323 348.4140625 110.53515625 C350.0641279 110.45752581 351.71419299 110.37988882 353.36425781 110.30224609 C354.22233032 110.26315125 355.08040283 110.2240564 355.96447754 110.18377686 C369.07684288 109.58606477 382.16264002 108.88875164 395.25 107.875 C409.17560131 106.81689581 423.04126857 106.79004569 437 107 C436.48042149 114.19616241 434.30393469 120.34534228 431.75 127.0625 C431.30599854 128.24150879 430.86199707 129.42051758 430.40454102 130.63525391 C420.40227509 156.90909087 408.87776606 182.48675623 396.96411133 207.93963623 C396.06359518 209.86409329 395.16532141 211.78958033 394.26757812 213.71533203 C388.24243967 226.60448226 381.85078606 239.20517279 374.9453125 251.64453125 C371.96514079 257.02359366 369.13520692 262.47465914 366.3125 267.9375 C362.20198112 275.8492847 357.84986032 283.54028668 353.15673828 291.11914062 C351.94096818 293.09598589 350.74814591 295.08540294 349.55859375 297.078125 C334.63806538 321.97111946 318.4373473 346.38337307 299 368 C298.52385254 368.53254395 298.04770508 369.06508789 297.55712891 369.61376953 C287.60278209 380.70594835 277.27021607 391.77925712 265.875 401.40625 C263.59616622 403.34325871 261.39675343 405.35905625 259.1875 407.375 C254.87576435 411.26607851 250.43577709 414.96008083 245.921875 418.61328125 C242.72588643 421.22390828 239.57941193 423.88734966 236.4375 426.5625 C231.9160084 430.40408787 227.35018346 434.17455271 222.69921875 437.859375 C220.67378163 439.46565509 218.65643582 441.08005696 216.64453125 442.703125 C209.26364944 448.6501822 201.80533421 454.4800321 194.26074219 460.21801758 C189.86815888 463.56130585 185.51355711 466.94622746 181.1875 470.375 C168.32223709 480.54300947 155.0803114 490.23062709 141.86669922 499.93847656 C136.86600563 503.6148758 131.89354217 507.32619796 126.9375 511.0625 C113.52721691 521.15584675 99.83721645 530.86203861 86.10888672 540.51611328 C83.27941232 542.50703078 80.45307481 544.50237417 77.62695312 546.49804688 C75.50296432 547.99790674 73.37843613 549.49700045 71.25390625 550.99609375 C68.40564783 553.00643657 65.55950595 555.01972831 62.71484375 557.03515625 C47.96376968 567.48053869 33.08365255 577.71599858 17.99462891 587.66796875 C16.21113454 588.85900244 14.45186297 590.0767521 12.69921875 591.3125 C11.30123047 592.2715625 11.30123047 592.2715625 9.875 593.25 C8.72644531 594.06210938 8.72644531 594.06210938 7.5546875 594.890625 C3.97028655 596.44715385 0.79808167 596.66758388 -3 596 C-5.98226128 594.81247403 -8.60905068 593.22000985 -11.3125 591.5 C-12.06031738 591.04149658 -12.80813477 590.58299316 -13.57861328 590.1105957 C-18.53281531 587.03548153 -23.29457349 583.75412421 -27.953125 580.24609375 C-31.93947593 577.30743762 -36.02926266 574.53327763 -40.125 571.75 C-53.82218818 562.41866423 -67.3066433 552.80528241 -80.73046875 543.0859375 C-84.47615505 540.37529834 -88.23445225 537.68295277 -92 535 C-111.32535318 521.21779482 -130.50733602 507.25206453 -149.36108398 492.82983398 C-154.6727837 488.76695875 -160.01056344 484.74287776 -165.375 480.75 C-171.20058357 476.40569547 -176.90350842 471.92795955 -182.55908203 467.36499023 C-186.58030353 464.12298027 -190.6433072 460.94539678 -194.75 457.8125 C-200.60803174 453.33578052 -206.31113718 448.6888674 -212 444 C-214.60055304 441.87055147 -217.20564573 439.74672845 -219.8125 437.625 C-220.4923999 437.07126709 -221.1722998 436.51753418 -221.87280273 435.94702148 C-226.33174488 432.32588081 -230.8387992 428.77357794 -235.375 425.25 C-240.30812796 421.41082929 -244.99622767 417.39224908 -249.59765625 413.15625 C-252.03946133 410.96458105 -254.5586774 408.91890626 -257.125 406.875 C-271.09475983 395.5604853 -284.37192939 382.7027886 -296 369 C-296.78632813 368.1028125 -297.57265625 367.205625 -298.3828125 366.28125 C-331.21846663 328.57289254 -356.17545437 283.30596743 -378.89453125 239.01953125 C-381.21802234 234.49396172 -383.61047407 230.01932701 -386.0625 225.5625 C-392.25925634 213.98296802 -397.57901615 201.95656928 -403 190 C-403.30738098 189.32336304 -403.61476196 188.64672607 -403.93145752 187.94958496 C-413.03678285 167.89279088 -421.54040697 147.73163588 -429 127 C-429.46817139 125.70521729 -429.46817139 125.70521729 -429.94580078 124.38427734 C-434.10951778 112.76995331 -434.10951778 112.76995331 -434 107 C-417.9087296 106.68733578 -401.90129864 107.59599316 -385.84626007 108.55532455 C-383.60241133 108.68884413 -381.358451 108.82030187 -379.11444092 108.95108032 C-354.4674565 110.38784638 -329.82712119 111.93238945 -305.18956757 113.52212906 C-302.63253019 113.68701443 -300.07545276 113.85126805 -297.51837158 114.01547241 C-293.48531621 114.27485082 -289.45245748 114.5371064 -285.41973877 114.80166626 C-283.93820137 114.89857934 -282.45661476 114.99474346 -280.97497559 115.09008789 C-268.35977205 115.90350259 -268.35977205 115.90350259 -263.59399414 116.53881836 C-259.50060073 117.06408296 -255.4528646 117.27225768 -251.33203125 117.4296875 C-249.63442269 117.50121551 -247.93683223 117.57317412 -246.23925781 117.64550781 C-245.35451782 117.68244751 -244.46977783 117.71938721 -243.55822754 117.75744629 C-229.06726098 118.37785267 -214.57033795 119.06665342 -200.10165405 120.08892822 C-198.55928566 120.19456962 -197.01630343 120.29167043 -195.47280884 120.3793335 C-183.81299203 121.05285835 -172.00413622 123.03810744 -163.0625 131.25 C-159.90023662 134.82646412 -157.30847914 138.82858568 -154.609375 142.7578125 C-152.08184174 146.27918165 -150.05617781 148.59989772 -145.69140625 149.44921875 C-143.45686241 149.71764289 -141.24785391 149.9020543 -139 150 C-139 149.34 -139 148.68 -139 148 C-138.39027344 147.75636719 -137.78054688 147.51273438 -137.15234375 147.26171875 C-128.19376961 142.01014081 -125.51524604 123.00351606 -123 113.4375 C-121.52839882 108.11199246 -120.01201996 104.78912997 -116 101 C-111.25 101.75 -111.25 101.75 -109 104 C-108.39331055 106.01757813 -108.39331055 106.01757813 -107.88671875 108.53125 C-107.59631714 109.94639893 -107.59631714 109.94639893 -107.30004883 111.39013672 C-106.99683716 112.92951904 -106.99683716 112.92951904 -106.6875 114.5 C-106.47311279 115.55848145 -106.25872559 116.61696289 -106.0378418 117.70751953 C-103.79547067 128.84672461 -101.66436465 140.00815868 -99.54541016 151.17138672 C-99.04147616 153.7848958 -98.51444801 156.39249661 -97.98046875 159 C-96.62782144 165.71821548 -95.58123205 172.48775882 -94.5 179.25390625 C-93.57477708 184.92812497 -92.43774055 190.43552298 -91 196 C-90.66179949 197.89141764 -90.34712608 199.78728205 -90.0625 201.6875 C-89.41081733 205.76430556 -88.61234365 209.74191847 -87.625 213.75 C-85.87327146 221.10195159 -84.69890791 228.53390806 -83.48095703 235.98999023 C-81.46939901 248.30191421 -79.13251143 260.51911342 -76.47827148 272.70849609 C-75.43162142 277.61874313 -74.60171712 282.51879858 -73.90698242 287.49047852 C-71.93726305 302.10733458 -71.93726305 302.10733458 -64.125 314.25 C-60.32470245 316.37816663 -58.29753222 316.61393317 -54 316 C-49.42355079 314.47451693 -47.0635228 312.52942451 -44.86351013 308.19116211 C-41.56449562 299.8198931 -40.36903354 290.74728756 -39.24609375 281.875 C-39.09970963 280.76624512 -38.9533255 279.65749023 -38.80250549 278.51513672 C-38.3409662 275.01090997 -37.88876148 271.50556368 -37.4375 268 C-36.98094781 264.49468568 -36.52237802 260.98964863 -36.06178284 257.48486328 C-35.77742996 255.31692488 -35.49561585 253.14865126 -35.21690369 250.97998047 C-34.42448133 244.89021819 -33.4898017 238.84078605 -32.45985413 232.78686523 C-31.82530567 228.94129569 -31.31956738 225.08666747 -30.84375 221.21875 C-30.62875509 219.51008969 -30.41374788 217.80143092 -30.19873047 216.09277344 C-30.08575623 215.18781128 -29.97278198 214.28284912 -29.85638428 213.35046387 C-29.21588357 208.22755513 -28.56501968 203.10596402 -27.9140625 197.984375 C-27.76913361 196.84389709 -27.62420471 195.70341919 -27.47488403 194.52838135 C-25.53161043 179.27448549 -23.53612137 164.02739283 -21.53491211 148.78100586 C-21.10003334 145.46751229 -20.66628963 142.15387358 -20.23364258 138.84008789 C-18.07906691 122.34228501 -15.87136662 105.86103171 -13.38717651 89.40895081 C-11.8773018 79.34473384 -10.59230694 69.25831243 -9.36218262 59.15655518 C-8.73447987 54.01085243 -8.09240353 48.86693126 -7.453125 43.72265625 C-7.20369856 41.71110987 -6.95434783 39.69955409 -6.70507812 37.68798828 C-6.58624268 36.72950989 -6.46740723 35.77103149 -6.3449707 34.7835083 C-6.12257817 32.98906183 -5.90039433 31.19458948 -5.6784668 29.40008545 C-5.04789699 24.30675993 -4.40320083 19.21547255 -3.75 14.125 C-3.52376953 12.28264771 -3.52376953 12.28264771 -3.29296875 10.40307617 C-3.14988281 9.30326416 -3.00679687 8.20345215 -2.859375 7.0703125 C-2.74045898 6.12945801 -2.62154297 5.18860352 -2.49902344 4.21923828 C-2 2 -2 2 0 0 Z " fill="#614BF8" transform="translate(625,576)"/>
<path d="M0 0 C3.13685507 0.16955973 4.63819773 0.66071956 6.9453125 2.82421875 C9.94485304 7.46039072 11.1258757 12.38974613 12.5625 17.6875 C13.14684611 19.7748206 13.73147866 21.86206103 14.31640625 23.94921875 C15.14331412 26.91613684 15.96829966 29.88313935 16.7746582 32.85571289 C17.14530396 34.17236938 17.14530396 34.17236938 17.5234375 35.515625 C17.84127197 36.67046387 17.84127197 36.67046387 18.16552734 37.84863281 C19.8018422 42.0672421 22.92495704 45.96247852 27 48 C33.27376116 48.52281343 35.87091503 47.99668959 41 44 C43.32513778 41.24545393 43.32513778 41.24545393 45.375 38.1875 C52.66646541 28.21034484 59.66644181 22.61477187 72.09326172 20.46484375 C75.72434303 20.05424685 79.35577572 19.75817882 83 19.5 C84.4587047 19.38542925 85.91736148 19.27024713 87.37597656 19.15454102 C110.42645097 17.38214427 133.52688555 16.17535679 156.60652161 14.84623146 C168.3380286 14.16952854 180.06498994 13.43223299 191.79071045 12.66197205 C199.75406769 12.13923283 207.71775888 11.65977735 215.6875 11.24609375 C218.98763124 11.04392457 218.98763124 11.04392457 222.18115234 10.51367188 C226.26976158 9.96371446 230.29639051 9.71294323 234.4140625 9.53515625 C236.0641279 9.45752581 237.71419299 9.37988882 239.36425781 9.30224609 C240.65136658 9.24360382 240.65136658 9.24360382 241.96447754 9.18377686 C255.07684288 8.58606477 268.16264002 7.88875164 281.25 6.875 C295.17560131 5.81689581 309.04126857 5.79004569 323 6 C322.48042149 13.19616241 320.30393469 19.34534228 317.75 26.0625 C317.30599854 27.24150879 316.86199707 28.42051758 316.40454102 29.63525391 C306.40227509 55.90909087 294.87776606 81.48675623 282.96411133 106.93963623 C282.06359518 108.86409329 281.16532141 110.78958033 280.26757812 112.71533203 C274.24243967 125.60448226 267.85078606 138.20517279 260.9453125 150.64453125 C257.96514079 156.02359366 255.13520692 161.47465914 252.3125 166.9375 C248.20198112 174.8492847 243.84986032 182.54028668 239.15673828 190.11914062 C237.94096818 192.09598589 236.74814591 194.08540294 235.55859375 196.078125 C220.63806538 220.97111946 204.4373473 245.38337307 185 267 C184.28577881 267.79881592 184.28577881 267.79881592 183.55712891 268.61376953 C173.60278209 279.70594835 163.27021607 290.77925712 151.875 300.40625 C149.59616622 302.34325871 147.39675343 304.35905625 145.1875 306.375 C140.87576435 310.26607851 136.43577709 313.96008083 131.921875 317.61328125 C128.72588643 320.22390828 125.57941193 322.88734966 122.4375 325.5625 C117.9160084 329.40408787 113.35018346 333.17455271 108.69921875 336.859375 C106.67378163 338.46565509 104.65643582 340.08005696 102.64453125 341.703125 C95.26364944 347.6501822 87.80533421 353.4800321 80.26074219 359.21801758 C75.86815888 362.56130585 71.51355711 365.94622746 67.1875 369.375 C54.32223709 379.54300947 41.0803114 389.23062709 27.86669922 398.93847656 C22.86600563 402.6148758 17.89354217 406.32619796 12.9375 410.0625 C-0.47278309 420.15584675 -14.16278355 429.86203861 -27.89111328 439.51611328 C-30.72058768 441.50703078 -33.54692519 443.50237417 -36.37304688 445.49804688 C-38.49703568 446.99790674 -40.62156387 448.49700045 -42.74609375 449.99609375 C-45.59435217 452.00643657 -48.44049405 454.01972831 -51.28515625 456.03515625 C-66.68692009 466.9412986 -82.21409546 477.65561274 -98 488 C-99.05058594 488.68964844 -100.10117187 489.37929687 -101.18359375 490.08984375 C-102.48490234 490.91162109 -102.48490234 490.91162109 -103.8125 491.75 C-104.87404297 492.42289063 -104.87404297 492.42289063 -105.95703125 493.109375 C-108.42544071 494.18546937 -110.33272371 494.06258506 -113 494 C-110.48356964 479.96199576 -107.86955765 465.9461759 -105.12768555 451.95043945 C-104.56340317 449.06711494 -104.00328164 446.18300211 -103.44335938 443.29882812 C-101.38431228 432.74199058 -99.19975662 422.22166402 -96.88829041 411.71728516 C-94.70496189 401.74925315 -92.72437675 391.74333046 -90.7505188 381.73208618 C-87.82238536 366.89484819 -84.87083464 352.07027717 -81.5625 337.3125 C-77.76573577 320.37025912 -74.43294124 303.33523118 -71.08227539 286.30004883 C-68.56940397 273.56976035 -65.92362625 260.881637 -63.04905701 248.22758484 C-61.30460103 240.52247873 -59.72571726 232.79861037 -58.38380432 225.01264954 C-57.63948991 221.01196953 -57.08655959 218.66526615 -54 216 C-52.86318049 215.27728876 -51.71694493 214.56920965 -50.5625 213.875 C-43.56432306 208.90386115 -42.10801487 199.43259624 -40.3125 191.5 C-40.10044922 190.61441406 -39.88839844 189.72882813 -39.66992188 188.81640625 C-38.67443416 184.53926347 -37.86812733 180.33922161 -37.41796875 175.96875 C-37 172 -37 172 -36 170 C-35.70678813 168.40760801 -35.45079462 166.80832885 -35.2109375 165.20703125 C-34.28176182 159.44047426 -33.16146786 153.72977957 -31.9765625 148.01171875 C-31.78932114 147.10760254 -31.60207977 146.20348633 -31.40916443 145.27197266 C-31.01696244 143.38211798 -30.62424689 141.49236981 -30.23104858 139.60272217 C-27.36889611 125.835162 -24.54008465 112.08282941 -22.24658203 98.20751953 C-21.21976902 92.05257678 -19.91781599 85.99824223 -18.50097656 79.92260742 C-16.81331395 72.5196041 -15.63913995 65.04268182 -14.43188477 57.54907227 C-13.41796009 51.3198195 -12.21928762 45.19513201 -10.71875 39.0625 C-9.85756081 35.39308521 -9.13253348 31.70364765 -8.4375 28 C-8.31036621 27.32727051 -8.18323242 26.65454102 -8.05224609 25.96142578 C-7.24860715 21.61250676 -6.63207773 17.26174779 -6.0625 12.875 C-5.25749572 7.37641147 -3.96574226 3.96574226 0 0 Z " fill="#433BF4" transform="translate(739,677)"/>
<path d="M0 0 C2 0.9375 2 0.9375 3.10926986 3.57147557 C4.04637546 7.11275055 4.25067169 10.0724759 4.25168228 13.73139095 C4.25458916 14.39299421 4.25749604 15.05459746 4.26049101 15.7362493 C4.2677838 17.95088197 4.26085113 20.16523695 4.25396729 22.37986755 C4.25627201 23.98460582 4.25944861 25.58934303 4.26342177 27.19407803 C4.27177692 31.60224855 4.26764121 36.01033256 4.26144934 40.4185034 C4.25692878 45.17318347 4.26390667 49.92784854 4.26940918 54.68252563 C4.27830925 63.99662463 4.27637837 73.31069141 4.2705839 82.62479167 C4.26606956 90.19419529 4.26545352 97.76358988 4.26763153 105.33299446 C4.267938 106.40977598 4.26824446 107.48655751 4.26856022 108.59596877 C4.26919966 110.78335245 4.26984809 112.97073613 4.2705054 115.15811981 C4.27621056 135.67668685 4.26964802 156.19523603 4.25890467 176.71380014 C4.24997026 194.32263678 4.25151993 211.93144704 4.26074219 229.5402832 C4.27144372 249.98322088 4.27565988 270.4261429 4.26951766 290.86908299 C4.26888056 293.04878525 4.26825181 295.22848751 4.26763153 297.40818977 C4.26732298 298.48067376 4.26701443 299.55315774 4.26669653 300.65814124 C4.26496914 308.21862037 4.26788566 315.77908958 4.27259064 323.33956718 C4.27819821 332.55309689 4.27668565 341.76659252 4.26602915 350.98011833 C4.26077061 355.68168994 4.25871882 360.38320472 4.26532745 365.08477592 C4.27128526 369.38840951 4.26801453 373.69193355 4.25737235 377.9955572 C4.2551376 379.55269153 4.25627629 381.10983512 4.26112393 382.66696351 C4.26720933 384.78402972 4.26096355 386.90072118 4.25168228 389.01776791 C4.25135758 390.1935471 4.25103287 391.36932629 4.25069833 392.58073515 C3.97101339 396.32562073 3.14417446 399.37163411 2 402.9375 C-21.96202674 403.52244406 -45.80567985 401.85441574 -69.71051407 400.39494324 C-75.48074203 400.04437955 -81.25151649 399.7030348 -87.0222168 399.36035156 C-113.57268181 397.7792554 -140.11933853 396.1368837 -166.66275024 394.44158936 C-182.54119051 393.42802545 -198.4178727 392.5292688 -214.3125 391.8125 C-225.71449752 391.29515863 -237.11151724 390.76644892 -248.5 390 C-249.54454346 389.93731934 -250.58908691 389.87463867 -251.6652832 389.81005859 C-261.5357909 389.09414849 -269.95324843 386.81845922 -278 380.9375 C-278.80252197 380.35500488 -279.60504395 379.77250977 -280.43188477 379.17236328 C-288.52101108 372.13292395 -290.9516515 359.46923151 -293.72509766 349.46313477 C-294.38010792 347.10662337 -295.05785919 344.75748832 -295.73828125 342.40820312 C-296.16801702 340.89100683 -296.59644997 339.37344078 -297.0234375 337.85546875 C-297.22335297 337.16366013 -297.42326843 336.4718515 -297.62924194 335.75907898 C-299.21660099 329.9529798 -300.07158464 325.09327616 -297.33984375 319.59765625 C-296.5543672 318.38835777 -295.75231547 317.18972769 -294.9375 316 C-294.01459124 314.58921739 -293.09278737 313.17771159 -292.171875 311.765625 C-291.41100586 310.61416992 -291.41100586 310.61416992 -290.63476562 309.43945312 C-287.57590553 304.75797191 -284.64207577 299.99769501 -281.6875 295.25 C-280.38821122 293.17045395 -279.08873182 291.09102699 -277.7890625 289.01171875 C-268.17000402 273.60129686 -258.64798193 258.13095632 -249.1328125 242.65625 C-246.33894264 238.11272413 -243.54188612 233.57118469 -240.7421875 229.03125 C-232.49631124 215.67855162 -232.49631124 215.67855162 -224.375 202.25 C-220.49627112 195.76044394 -216.60094987 189.28119061 -212.6875 182.8125 C-212.0879248 181.81516846 -211.48834961 180.81783691 -210.87060547 179.7902832 C-207.03106716 173.4557478 -203.50740682 167.86391264 -197.5625 163.3125 C-193.53089231 160.16169809 -189.58433035 156.93926327 -185.6875 153.625 C-185.14182373 153.16158203 -184.59614746 152.69816406 -184.03393555 152.22070312 C-182.35517195 150.793889 -180.677555 149.36573478 -179 147.9375 C-172.89234405 142.7439393 -166.784841 137.55622146 -160.5625 132.5 C-156.31607618 129.04475849 -152.14703706 125.51052166 -148 121.9375 C-142.98403597 117.61582458 -137.90824892 113.38270959 -132.76953125 109.20703125 C-127.45558334 104.85244206 -122.23473234 100.38671565 -117 95.9375 C-104.80137712 85.56938559 -104.80137712 85.56938559 -98.625 80.5625 C-94.14827334 76.92230037 -89.78462762 73.167636 -85.4375 69.375 C-80.54506625 65.10785983 -75.59566293 60.95686487 -70.49609375 56.9375 C-67.5976787 54.61513927 -64.76479602 52.22030059 -61.9375 49.8125 C-56.83437214 45.46788321 -51.6807968 41.18916674 -46.5 36.9375 C-40.80512659 32.26304014 -35.14803644 27.54962447 -29.5378418 22.77392578 C-26.16516546 19.90765571 -22.75215018 17.09789504 -19.3125 14.3125 C-14.728351 10.58871914 -10.33856366 6.68952027 -5.99609375 2.6875 C-2.82979727 -0.08843116 -2.82979727 -0.08843116 0 0 Z " fill="#5A4CF3" transform="translate(1061,271.0625)"/>
<path d="M0 0 C4.14413986 1.70042103 7.24383235 4.64149405 10.5625 7.5625 C11.82335107 8.65855103 13.08507833 9.75359489 14.34765625 10.84765625 C14.96914551 11.38664551 15.59063477 11.92563477 16.23095703 12.48095703 C18.61880319 14.53135433 21.05414785 16.51933221 23.5 18.5 C27.7279248 21.93208013 31.8752789 25.44551171 36 29 C41.01314773 33.31934272 46.08537515 37.55097277 51.22265625 41.72265625 C54.90759143 44.74419944 58.53568321 47.83035951 62.16650391 50.91650391 C65.55973475 53.79557843 68.9827672 56.63211492 72.4375 59.4375 C77.85570579 63.84913055 83.1527085 68.39323642 88.44921875 72.94921875 C95.71031003 79.19427321 103.00553429 85.3963115 110.4375 91.4375 C115.30208624 95.39572956 120.06062178 99.46649061 124.81054688 103.56054688 C128.31216351 106.57231987 131.84777593 109.53051691 135.4375 112.4375 C139.87239526 116.03636198 144.19564251 119.74735888 148.5 123.5 C153.67930172 128.01477284 158.91835614 132.43237753 164.2578125 136.7578125 C167.37000148 139.30253683 170.43726497 141.89618225 173.5 144.5 C177.46899152 147.87288602 181.4601718 151.21176774 185.5 154.5 C186.38429688 155.22960937 187.26859375 155.95921875 188.1796875 156.7109375 C190.18558012 158.33898885 192.20068952 159.91711108 194.2578125 161.4765625 C202.28680592 167.70474741 207.16064194 174.16909735 211.95263672 183.08251953 C213.64238107 186.1760515 215.48204071 189.17587641 217.3125 192.1875 C218.06590842 193.44092318 218.81848962 194.6948439 219.5703125 195.94921875 C219.9612207 196.60067871 220.35212891 197.25213867 220.75488281 197.92333984 C222.08523417 200.14215723 223.41379746 202.36203912 224.7421875 204.58203125 C230.59949989 214.36557642 236.49478631 224.1250058 242.43188477 233.86035156 C245.71249121 239.23991998 248.98536174 244.6239961 252.24609375 250.015625 C258.98519136 261.15398681 265.74544637 272.27006326 272.74560547 283.24731445 C276.34997328 288.91763075 279.81485412 294.66337078 283.25 300.4375 C289.64831587 313.27690755 289.64831587 313.27690755 299 323 C298.4563342 329.79582251 296.68809137 335.99752859 294.72900391 342.51123047 C293.84141094 345.54141223 293.00642061 348.58476647 292.16796875 351.62890625 C291.48747793 354.0444114 290.80648312 356.45977462 290.125 358.875 C289.80974365 360.0400708 289.4944873 361.2051416 289.16967773 362.40551758 C285.93667074 373.68418367 281.25101439 380.29651632 271 386 C260.8449879 391.21344296 249.76693249 390.98235609 238.625 391.5 C236.42316255 391.61553674 234.22142268 391.73294544 232.01977539 391.85205078 C227.22756677 392.10961383 222.43501955 392.35877386 217.64208984 392.60253906 C205.66225881 393.21793672 193.68765639 393.92675387 181.7124939 394.6260376 C178.12461711 394.83533731 174.53661121 395.04232576 170.94855595 395.24854088 C153.98133144 396.22385416 137.01685073 397.23703608 120.0546875 398.296875 C119.17560793 398.35180052 118.29652836 398.40672604 117.39081001 398.46331596 C113.84318394 398.68506149 110.29556694 398.90695163 106.74795628 399.12894344 C56.11439076 402.29661664 56.11439076 402.29661664 35.25 403.3125 C34.4724234 403.35183655 33.6948468 403.3911731 32.89370728 403.43170166 C20.92621989 404.02925199 8.98091945 404.07262497 -3 404 C-4.26612286 396.18871582 -4.14558665 388.37866466 -4.14044189 380.48916626 C-4.14302813 378.90133987 -4.14604201 377.31351414 -4.1494453 375.72568929 C-4.15748777 371.37346102 -4.15930332 367.02124927 -4.16004276 362.66901445 C-4.16189805 357.97089225 -4.16944761 353.27277853 -4.17617798 348.57466125 C-4.18974072 338.30826321 -4.19578238 328.04186909 -4.20018864 317.77546358 C-4.20295369 311.36373976 -4.20719144 304.95201745 -4.21169281 298.54029465 C-4.22388117 280.78278765 -4.23418239 263.02528186 -4.2375679 245.26777077 C-4.23778747 244.13203702 -4.23800703 242.99630328 -4.23823325 241.82615336 C-4.23845153 240.68773778 -4.23866981 239.5493222 -4.2388947 238.37640917 C-4.23933816 236.06962434 -4.23978473 233.76283952 -4.24023438 231.45605469 C-4.2404558 230.31181512 -4.24067723 229.16757555 -4.24090537 227.98866205 C-4.244855 209.4402105 -4.26231597 190.89179819 -4.2855939 172.34336181 C-4.30930821 153.29330964 -4.32176973 134.24327717 -4.32293582 115.19321001 C-4.32385236 104.4998545 -4.32959975 93.80655018 -4.34775543 83.11320877 C-4.36315725 74.00996655 -4.36827626 64.90679135 -4.36001733 55.80353858 C-4.35611157 51.16028263 -4.35703697 46.51716167 -4.37107468 41.87392235 C-4.38381734 37.62013392 -4.3826129 33.36658185 -4.37048396 29.11279373 C-4.36852765 27.57719662 -4.37160239 26.04158274 -4.38032833 24.50600918 C-4.42384135 16.32842977 -4.27151743 8.64217773 -1 1 C-0.67 0.67 -0.34 0.34 0 0 Z " fill="#8B6CFA" transform="translate(192,270)"/>
<path d="M0 0 C0.74958984 0.00451172 1.49917969 0.00902344 2.27148438 0.01367188 C4.11852383 0.02543646 5.96552213 0.04337135 7.8125 0.0625 C7.8125 0.3925 7.8125 0.7225 7.8125 1.0625 C5.1725 1.0625 2.5325 1.0625 -0.1875 1.0625 C0.1425 2.3825 0.4725 3.7025 0.8125 5.0625 C-0.09266357 5.41513916 -0.09266357 5.41513916 -1.01611328 5.77490234 C-3.73982352 7.39001903 -4.48386365 8.86194116 -5.9296875 11.6640625 C-6.43105225 12.61667969 -6.93241699 13.56929687 -7.44897461 14.55078125 C-7.98143799 15.58589844 -8.51390137 16.62101562 -9.0625 17.6875 C-10.22459599 19.88974873 -11.39005948 22.09022321 -12.55859375 24.2890625 C-13.45747314 25.98144043 -13.45747314 25.98144043 -14.37451172 27.70800781 C-17.17717943 32.89366016 -20.13703533 37.98195117 -23.125 43.0625 C-23.99366699 44.54049072 -23.99366699 44.54049072 -24.87988281 46.04833984 C-26.05653717 48.04774062 -27.23410938 50.04660151 -28.41259766 52.04492188 C-30.8033843 56.10958803 -33.17149158 60.18727972 -35.54052734 64.26464844 C-45.14938743 80.79220552 -55.02056938 97.1561381 -64.9375 113.5 C-65.28994781 114.08092407 -65.64239563 114.66184814 -66.00552368 115.26037598 C-80.25874324 138.74547751 -80.25874324 138.74547751 -86.4375 148.1875 C-91.00910732 155.21000807 -95.50204781 162.27928442 -99.95214844 169.37939453 C-102.36930992 173.22594321 -104.82777154 177.03358439 -107.3671875 180.80078125 C-109.42856108 183.8756774 -111.30620158 186.9538145 -113 190.25 C-117.81044215 199.24288925 -123.56974013 207.66598824 -129.25 216.125 C-132.72770533 221.31395717 -136.01534938 226.60227451 -139.26953125 231.93359375 C-141.52637263 235.6153248 -143.84213517 239.2561505 -146.16796875 242.89453125 C-148.70848344 246.87974868 -151.22874985 250.87757748 -153.75 254.875 C-160.53350511 265.62266931 -167.35430926 276.34636697 -174.1875 287.0625 C-175.13133545 288.54411621 -175.13133545 288.54411621 -176.09423828 290.05566406 C-186.34074631 306.13559288 -196.69390769 322.14270117 -207.1875 338.0625 C-207.87051178 339.09957092 -207.87051178 339.09957092 -208.56732178 340.15759277 C-211.54436417 344.67686168 -214.52786904 349.19177318 -217.51873779 353.7019043 C-218.4993178 355.18184514 -219.47838532 356.66278934 -220.45587158 358.14477539 C-221.82671624 360.22196614 -223.20358258 362.29503761 -224.58203125 364.3671875 C-224.98862473 364.98580658 -225.3952182 365.60442566 -225.81413269 366.24179077 C-228.00992443 369.52729913 -230.28277391 372.37936645 -233.1875 375.0625 C-234.14269531 374.22847656 -235.09789062 373.39445312 -236.08203125 372.53515625 C-242.79142089 366.69036969 -249.53035983 360.90641474 -256.4453125 355.3046875 C-259.55750148 352.75996317 -262.62476497 350.16631775 -265.6875 347.5625 C-269.65649152 344.18961398 -273.6476718 340.85073226 -277.6875 337.5625 C-285.74486214 330.99767383 -293.64717934 324.25108116 -301.52612305 317.47387695 C-307.07091899 312.70506448 -312.66514381 308.01594208 -318.34375 303.40625 C-322.27906033 300.16286237 -326.13569302 296.83103203 -329.99829102 293.50170898 C-333.49985302 290.49004991 -337.03536557 287.5319105 -340.625 284.625 C-345.05989526 281.02613802 -349.38314251 277.31514112 -353.6875 273.5625 C-358.86680172 269.04772716 -364.10585614 264.63012247 -369.4453125 260.3046875 C-372.55750148 257.75996317 -375.62476497 255.16631775 -378.6875 252.5625 C-382.65649152 249.18961398 -386.6476718 245.85073226 -390.6875 242.5625 C-395.2928325 238.81397354 -399.82954444 234.99165754 -404.35375977 231.14624023 C-407.74704109 228.2670468 -411.17017786 225.43045763 -414.625 222.625 C-419.05362462 219.01939411 -423.413337 215.34015788 -427.75 211.625 C-428.35835693 211.10429932 -428.96671387 210.58359863 -429.59350586 210.04711914 C-431.85348074 208.10482813 -434.07955511 206.17044489 -436.1875 204.0625 C-429.4973924 195.25972685 -420.48245889 191.01673013 -410.625 186.4375 C-400.38020507 181.60965228 -390.20032721 176.65859327 -380.03039551 171.67550659 C-362.92949015 163.30016662 -345.76028972 155.08844352 -328.51094055 147.02389526 C-321.11326118 143.56398849 -313.73071394 140.07221038 -306.34796143 136.58059692 C-299.62961488 133.40407225 -292.90845803 130.23349439 -286.1875 127.0625 C-285.49420593 126.73529968 -284.80091187 126.40809937 -284.08660889 126.07098389 C-267.98911534 118.47477231 -251.85651466 110.968165 -235.63708496 103.63552856 C-223.62356265 98.20354706 -211.67659846 92.637643 -199.765625 86.984375 C-193.69338371 84.11096395 -187.61542575 81.37084412 -181.3527832 78.93676758 C-178.1315818 77.63615621 -175.08956535 76.08922406 -172 74.5 C-167.45559386 72.16807045 -162.8863028 70.06318201 -158.1875 68.0625 C-155.34304484 66.75254005 -152.51524856 65.40808339 -149.6875 64.0625 C-144.56034404 61.62274421 -139.41162942 59.29017048 -134.1875 57.0625 C-130.97334509 55.57725874 -127.76939822 54.07163977 -124.56640625 52.5625 C-122.13614478 51.48363248 -119.7657678 50.52322185 -117.2734375 49.62109375 C-113.10073972 48.0858606 -109.19791421 46.16033487 -105.25 44.125 C-99.62632771 41.26939608 -93.98616854 38.54764366 -88.1875 36.0625 C-79.07241767 32.04259981 -70.00098643 27.93283667 -60.9921875 23.6796875 C-60.35827591 23.38044876 -59.72436432 23.08121002 -59.07124329 22.77290344 C-58.42342392 22.46708847 -57.77560455 22.1612735 -57.1081543 21.84619141 C-10.57024994 -0.12001157 -10.57024994 -0.12001157 0 0 Z " fill="#BEA9FC" transform="translate(628.1875,64.9375)"/>
<path d="M0 0 C8.86856936 -0.78560162 15.05373527 1.19582114 23 5 C24.56065341 5.69168159 26.12300065 6.37956202 27.6875 7.0625 C29.1251393 7.70802319 30.56264292 8.35384865 32 9 C33.4165807 9.62519483 34.83324956 10.25018992 36.25 10.875 C47.65662094 15.95754198 58.91294559 21.33688167 70.15429688 26.7734375 C75.39404233 29.30072948 80.6403576 31.73527639 86 34 C95.87127184 38.39388137 105.62977368 43.03596321 115.40429688 47.63964844 C117.50342499 48.62797995 119.60323706 49.61484663 121.703125 50.6015625 C122.33244934 50.89850006 122.96177368 51.19543762 123.61016846 51.50137329 C127.70575714 53.42474054 131.8351092 55.23406851 136 57 C143.35465253 60.2623302 150.63082421 63.69342059 157.89794922 67.14526367 C161.0538239 68.63900497 164.20998971 70.08965314 167.421875 71.4609375 C172.67601028 73.72090398 177.81435136 76.21445255 182.97265625 78.68359375 C183.77574219 79.06644531 184.57882812 79.44929688 185.40625 79.84375 C186.12103516 80.18599609 186.83582031 80.52824219 187.57226562 80.88085938 C190.07667397 82.03534528 192.60977057 83.11244185 195.14666748 84.19311523 C198.26469153 85.55060833 201.33008764 87.01915094 204.3984375 88.484375 C205.84417599 89.17127371 207.28997964 89.85803527 208.73583984 90.54467773 C209.86804962 91.08304764 209.86804962 91.08304764 211.02313232 91.6322937 C223.75593392 97.6834558 236.52455877 103.64046207 249.375 109.4375 C275.42966114 121.20655805 301.19051313 133.58623209 326.86630249 146.15725708 C337.62244257 151.42173457 348.41770946 156.55630577 359.32763672 161.49609375 C366.56344023 164.77698016 373.67593476 168.2531397 380.75439453 171.85888672 C385.47326466 174.2567992 390.20565545 176.62782354 394.9375 179 C396.47639893 179.7734375 396.47639893 179.7734375 398.04638672 180.5625 C402.70550048 182.89465311 407.37060719 185.19622462 412.10546875 187.37109375 C412.87576416 187.72494141 413.64605957 188.07878906 414.43969727 188.44335938 C415.83857124 189.07973686 417.24112345 189.70812741 418.64819336 190.32617188 C426.07043644 193.69181651 430.32910032 197.7993891 434 205 C433.11699219 205.39960938 432.23398438 205.79921875 431.32421875 206.2109375 C427.93402709 208.03550598 425.59104614 209.97676389 422.8125 212.625 C417.39718677 217.67391856 411.76654166 222.36044294 406 227 C399.30726223 232.41745982 392.71712982 237.93597198 386.19433594 243.55566406 C381.78007915 247.35139335 377.2968464 251.05263427 372.77734375 254.72265625 C369.65603733 257.28203972 366.57546576 259.88589916 363.5 262.5 C359.55349519 265.85447127 355.58357928 269.17221829 351.5625 272.4375 C347.44237219 275.79067761 343.39664365 279.21783556 339.375 282.6875 C333.43522621 287.81060635 327.39861703 292.80615322 321.33105469 297.77685547 C316.12106654 302.05387025 310.9872211 306.41058579 305.88452148 310.81469727 C302.48559541 313.74311591 299.04916363 316.61325111 295.5625 319.4375 C291.18310291 322.98853606 286.92831473 326.66138078 282.6875 330.375 C277.81934043 334.63487167 272.8707228 338.7350083 267.75 342.6875 C262.4825022 346.75430737 257.54097544 351.06038305 252.65625 355.5859375 C246.27911742 361.38162564 239.51758234 366.73041289 232.55859375 371.80859375 C230.85668332 373.05508457 230.85668332 373.05508457 229 375 C228.63390625 374.35417969 228.2678125 373.70835937 227.890625 373.04296875 C223.26582222 364.99360962 218.34523526 357.15662271 213.37109375 349.3203125 C199.35292207 327.2308213 185.65050291 304.94071312 171.94384766 282.65722656 C163.24106501 268.51128694 154.50105717 254.38970937 145.6875 240.3125 C134.68339353 222.72954239 123.83934248 205.04913551 113.07128906 187.32080078 C109.30831801 181.13145061 105.50981389 174.96534882 101.6875 168.8125 C96.26578088 160.08278268 90.92406742 151.30563463 85.59945679 142.51651001 C80.43320071 133.99009912 75.23388968 125.48514722 70 117 C64.32112898 107.79071476 58.67604751 98.56169519 53.0625 89.3125 C52.51656189 88.41300125 52.51656189 88.41300125 51.95959473 87.49533081 C48.03661393 81.02950195 44.12620363 74.55649495 40.25 68.0625 C36.72700992 62.17036737 33.12068285 56.33254773 29.5 50.5 C25.05365596 43.33711898 20.64969133 36.15361418 16.3359375 28.91015625 C14.52326082 25.86681821 12.68993852 22.83647488 10.8515625 19.80859375 C10.30701416 18.90890869 9.76246582 18.00922363 9.20141602 17.08227539 C8.13181052 15.31542668 7.0595033 13.5502099 5.98413086 11.78686523 C5.49565674 10.97805908 5.00718262 10.16925293 4.50390625 9.3359375 C3.85143921 8.26158447 3.85143921 8.26158447 3.18579102 7.16552734 C1.91162322 4.83860366 0.9382124 2.47927038 0 0 Z " fill="#7F62FA" transform="translate(628,66)"/>
<path d="M0 0 C3.49311982 1.4156009 4.85515255 2.87635918 6.70703125 6.12890625 C7.45134399 7.41462524 7.45134399 7.41462524 8.21069336 8.72631836 C8.73928955 9.6622583 9.26788574 10.59819824 9.8125 11.5625 C10.97554545 13.57610862 12.13964862 15.58910659 13.3046875 17.6015625 C13.91022461 18.65375977 14.51576172 19.70595703 15.13964844 20.79003906 C18.18223457 26.03989766 21.30906765 31.23848858 24.4375 36.4375 C25.06712646 37.48583008 25.69675293 38.53416016 26.34545898 39.61425781 C31.63936175 48.42094984 36.97638733 57.20102402 42.328125 65.97265625 C44.97250235 70.30842359 47.60627049 74.65045641 50.234375 78.99609375 C56.97731982 90.1410063 63.74136171 101.26365792 70.74560547 112.24731445 C74.34997328 117.91763075 77.81485412 123.66337078 81.25 129.4375 C87.64831587 142.27690755 87.64831587 142.27690755 97 152 C96.4563342 158.79582251 94.68809137 164.99752859 92.72900391 171.51123047 C91.84141094 174.54141223 91.00642061 177.58476647 90.16796875 180.62890625 C89.48747793 183.0444114 88.80648312 185.45977462 88.125 187.875 C87.65211548 189.6226062 87.65211548 189.6226062 87.16967773 191.40551758 C83.93667074 202.68418367 79.25101439 209.29651632 69 215 C58.8449879 220.21344296 47.76693249 219.98235609 36.625 220.5 C34.42316255 220.61553674 32.22142268 220.73294544 30.01977539 220.85205078 C25.22756677 221.10961383 20.43501955 221.35877386 15.64208984 221.60253906 C3.66225881 222.21793672 -8.31234361 222.92675387 -20.2875061 223.6260376 C-23.87538289 223.83533731 -27.46338879 224.04232576 -31.05144405 224.24854088 C-48.0186686 225.22385417 -64.98314882 226.23704287 -81.9453125 227.296875 C-82.82441284 227.35180052 -83.70351318 227.40672604 -84.60925293 227.46331596 C-88.15695253 227.6850599 -91.70464295 227.9069503 -95.25232697 228.12894344 C-145.88598256 231.29663252 -145.88598256 231.29663252 -166.8125 232.3125 C-167.59434662 232.35183655 -168.37619324 232.3911731 -169.18173218 232.43170166 C-180.79173888 233.0081955 -192.37690998 233.07450216 -204 233 C-203.34 232.67 -202.68 232.34 -202 232 C-201.72285156 231.42378906 -201.44570312 230.84757813 -201.16015625 230.25390625 C-199.66279748 227.34489611 -197.67891271 225.31922023 -195.4375 222.9375 C-192.0046517 219.24636541 -188.72061908 215.49589741 -185.5625 211.5625 C-181.90364231 207.0260327 -178.05131037 202.741339 -174.08398438 198.47851562 C-171.1129881 195.26718772 -168.30046168 191.97381211 -165.5625 188.5625 C-161.20258694 183.14587552 -156.52524121 178.08061704 -151.78515625 173 C-149.02333659 170.0378076 -146.34697566 167.0097866 -143.69921875 163.9453125 C-141.70593572 161.6633471 -139.66506973 159.42771426 -137.625 157.1875 C-134.55253227 153.78916448 -131.61557378 150.32409477 -128.75 146.75 C-124.08941135 140.98558772 -119.06220719 135.61148047 -113.99609375 130.20703125 C-109.60757219 125.52405056 -105.42880328 120.67583043 -101.265625 115.79296875 C-95.67899933 109.2464232 -90.03569424 102.78095218 -84.22265625 96.43359375 C-78.61463537 90.29335296 -73.23904595 83.95054433 -67.83129883 77.63452148 C-52.25048905 59.44445057 -52.25048905 59.44445057 -45.25 51.75 C-42.28032028 48.47850165 -39.45660445 45.13030428 -36.6875 41.6875 C-32.274613 36.23128595 -27.55528972 31.11384549 -22.7734375 25.984375 C-16.63473663 19.39870126 -10.84548112 12.50180556 -4.99804688 5.65844727 C-1.10437116 1.10437116 -1.10437116 1.10437116 0 0 Z " fill="#5B4DF2" transform="translate(394,441)"/>
<path d="M0 0 C0.66 0 1.32 0 2 0 C3.84946227 6.59167323 4.67173446 13.07455492 5.375 19.875 C6.33724897 28.68570823 7.46848156 37.43691606 8.875 46.1875 C11.29882243 61.36754016 13.16995676 76.61357712 15.0919342 91.86326599 C16.04104725 99.37285251 17.04688047 106.87411123 18.0625 114.375 C19.3375049 123.81180537 20.51865544 133.25616866 21.63446045 142.71295166 C23.309024 156.89426568 25.26213932 171.02187058 27.32455444 185.15176392 C29.54097194 200.37034865 31.48860124 215.61048583 33.26342773 230.88671875 C34.29194281 239.66697196 35.49111517 248.39332535 36.90812683 257.11962891 C38.30964844 265.78896 39.39559922 274.49216987 40.4609375 283.20898438 C42.32578233 299.66756272 42.32578233 299.66756272 50 314 C53.44450737 316.29633824 55.93812283 316.54016485 60 317 C59.34 317.33 58.68 317.66 58 318 C57.39230853 319.90446229 57.39230853 319.90446229 57.02734375 322.2734375 C56.85485107 323.22041504 56.6823584 324.16739258 56.50463867 325.14306641 C56.31748291 326.20960449 56.13032715 327.27614258 55.9375 328.375 C55.49832407 330.76627645 55.05533501 333.15685445 54.609375 335.546875 C54.48717087 336.20253448 54.36496674 336.85819397 54.23905945 337.53372192 C52.5343252 346.59380037 50.59513604 355.60597002 48.6875 364.625 C45.63864532 379.06618844 42.67731132 393.52120151 39.8125 408 C37.4614968 419.87954036 34.99394066 431.71539045 32.29492188 443.52172852 C29.5112414 455.87006722 27.16794503 468.30794528 24.80273438 480.74194336 C23.29715979 488.62007541 21.71530927 496.42200017 19.69506836 504.18774414 C18.36271509 509.57846324 17.39682721 515.04357388 16.375 520.5 C13.43941249 535.99117465 10.27246287 551.43276882 7.07177734 566.87109375 C5.20776286 575.89066407 3.38586034 584.89207887 2 594 C2.99 594.66 3.98 595.32 5 596 C2.36 596 -0.28 596 -3 596 C-2.01 595.67 -1.02 595.34 0 595 C-0.18719604 594.34144012 -0.37439209 593.68288025 -0.56726074 593.00436401 C-2.47980108 586.1536566 -4.08603553 579.28315375 -5.53125 572.3203125 C-5.76346252 571.2147551 -5.99567505 570.10919769 -6.23492432 568.97013855 C-6.99318123 565.35576071 -7.74665342 561.7404042 -8.5 558.125 C-9.03263354 555.5809222 -9.565515 553.03689629 -10.09863281 550.49291992 C-14.1327909 531.22503192 -18.13113843 511.94965623 -22.12597656 492.67358398 C-27.34712584 467.48180966 -32.59210499 442.29766773 -38.13150024 417.17373657 C-40.19951107 407.78478013 -42.16044409 398.38185225 -44.01196289 388.94799805 C-45.28568792 382.4883556 -46.61468876 376.04224593 -47.98046875 369.6015625 C-48.15636032 368.77139618 -48.33225189 367.94122986 -48.51347351 367.08590698 C-49.38688072 362.96766148 -50.264141 358.85027878 -51.14624023 354.73388672 C-53.5589351 343.41790897 -55.92254286 332.05390588 -57.45751953 320.58007812 C-57.63653809 319.72865234 -57.81555664 318.87722656 -58 318 C-58.66 317.67 -59.32 317.34 -60 317 C-59.40832031 316.91363281 -58.81664062 316.82726562 -58.20703125 316.73828125 C-52.66750101 315.75327506 -49.44802489 314.72871985 -46 310 C-42.23292325 302.52797661 -40.96319513 294.98995417 -39.9296875 286.7578125 C-39.76252228 285.51305145 -39.59535706 284.26829041 -39.42312622 282.98580933 C-38.98395842 279.70040179 -38.55577053 276.41382482 -38.13342285 273.1262207 C-37.5374388 268.51093369 -36.91936876 263.89854263 -36.30545044 259.28561401 C-35.98121906 256.83958278 -35.66041805 254.39309338 -35.34371948 251.94607544 C-34.50541237 245.51779165 -33.54360552 239.12847567 -32.45339966 232.73825073 C-31.81938339 228.90918851 -31.31756689 225.07040552 -30.84375 221.21875 C-30.62875509 219.51008969 -30.41374788 217.80143092 -30.19873047 216.09277344 C-30.08575623 215.18781128 -29.97278198 214.28284912 -29.85638428 213.35046387 C-29.21588357 208.22755513 -28.56501968 203.10596402 -27.9140625 197.984375 C-27.76913361 196.84389709 -27.62420471 195.70341919 -27.47488403 194.52838135 C-25.53161043 179.27448549 -23.53612137 164.02739283 -21.53491211 148.78100586 C-21.10003334 145.46751229 -20.66628963 142.15387358 -20.23364258 138.84008789 C-18.07906691 122.34228501 -15.87136662 105.86103171 -13.38717651 89.40895081 C-11.8773018 79.34473384 -10.59230694 69.25831243 -9.36218262 59.15655518 C-8.73447987 54.01085243 -8.09240353 48.86693126 -7.453125 43.72265625 C-7.20369856 41.71110987 -6.95434783 39.69955409 -6.70507812 37.68798828 C-6.58624268 36.72950989 -6.46740723 35.77103149 -6.3449707 34.7835083 C-6.12257817 32.98906183 -5.90039433 31.19458948 -5.6784668 29.40008545 C-5.04789699 24.30675993 -4.40320083 19.21547255 -3.75 14.125 C-3.59917969 12.89676514 -3.44835937 11.66853027 -3.29296875 10.40307617 C-3.14988281 9.30326416 -3.00679687 8.20345215 -2.859375 7.0703125 C-2.74045898 6.12945801 -2.62154297 5.18860352 -2.49902344 4.21923828 C-2 2 -2 2 0 0 Z " fill="#8768FA" transform="translate(625,576)"/>
<path d="M0 0 C0.66 0 1.32 0 2 0 C3.32967768 1.88371004 4.562695 3.83595931 5.75 5.8125 C6.10707031 6.40562988 6.46414063 6.99875977 6.83203125 7.60986328 C10.38400317 13.55368726 13.68529237 19.62205007 16.92138672 25.74267578 C17.92557213 27.64158089 18.93134182 29.53963952 19.9375 31.4375 C20.44144287 32.39148682 20.44144287 32.39148682 20.95556641 33.36474609 C23.14652592 37.48475974 25.46758542 41.50098909 27.875 45.5 C30.33557677 49.64766927 32.03455262 53.28003504 33 58 C33.66 58 34.32 58 35 58 C35.50789063 59.03898438 36.01578125 60.07796875 36.5390625 61.1484375 C39.95098743 68.07888399 43.4162384 74.85473128 47.48828125 81.42578125 C51.52231688 88.29510807 55.15262068 95.56052363 58 103 C53.52685902 107.58021085 48.97622306 111.9864486 44.12109375 116.16015625 C41.77508942 118.19508819 39.4826355 120.28290967 37.1875 122.375 C32.87576435 126.26607851 28.43577709 129.96008083 23.921875 133.61328125 C20.72588643 136.22390828 17.57941193 138.88734966 14.4375 141.5625 C9.9160084 145.40408787 5.35018346 149.17455271 0.69921875 152.859375 C-1.32621837 154.46565509 -3.34356418 156.08005696 -5.35546875 157.703125 C-12.73635056 163.6501822 -20.19466579 169.4800321 -27.73925781 175.21801758 C-32.13184112 178.56130585 -36.48644289 181.94622746 -40.8125 185.375 C-53.67776291 195.54300947 -66.9196886 205.23062709 -80.13330078 214.93847656 C-85.13399437 218.6148758 -90.10645783 222.32619796 -95.0625 226.0625 C-108.47278309 236.15584675 -122.16278355 245.86203861 -135.89111328 255.51611328 C-138.72058768 257.50703078 -141.54692519 259.50237417 -144.37304688 261.49804688 C-146.49703568 262.99790674 -148.62156387 264.49700045 -150.74609375 265.99609375 C-153.59435217 268.00643657 -156.44049405 270.01972831 -159.28515625 272.03515625 C-174.68692009 282.9412986 -190.21409546 293.65561274 -206 304 C-207.05058594 304.68964844 -208.10117187 305.37929687 -209.18359375 306.08984375 C-210.48490234 306.91162109 -210.48490234 306.91162109 -211.8125 307.75 C-212.87404297 308.42289063 -212.87404297 308.42289063 -213.95703125 309.109375 C-216.42454553 310.18507912 -218.33620997 310.16735854 -221 310 C-219.41322895 305.69187549 -217.31428593 301.73815001 -215.0625 297.75 C-214.47033691 296.70054199 -214.47033691 296.70054199 -213.86621094 295.62988281 C-209.69666035 288.33398174 -205.135231 281.31381075 -200.51074219 274.30078125 C-198.90408257 271.85392278 -197.31370585 269.39705901 -195.7265625 266.9375 C-190.47002404 258.79554564 -185.17361908 250.70070201 -179.61328125 242.76171875 C-175.99994125 237.58704091 -172.47897313 232.34895914 -168.9375 227.125 C-160.71892455 215.01731761 -152.38400593 202.99363784 -144 191 C-142.74602954 189.20316981 -141.49212225 187.40629553 -140.23828125 185.609375 C-130.75523173 172.02846096 -121.16507253 158.54965638 -111.31030273 145.23583984 C-107.48899025 140.05984393 -103.74769519 134.83605545 -100.0625 129.5625 C-94.35770284 121.40658861 -88.38944246 113.45961683 -82.39453125 105.515625 C-79.86717925 102.16412156 -77.38188811 98.78772174 -74.9375 95.375 C-70.91111189 89.79395444 -66.65932052 84.39311238 -62.42041016 78.97314453 C-58.49151135 73.94176465 -54.62589234 68.86937435 -50.8125 63.75 C-45.7718408 56.98951806 -40.60381182 50.34075326 -35.36767578 43.73095703 C-33.96755896 41.95894199 -32.57456848 40.18154218 -31.18359375 38.40234375 C-23.23159629 28.23310823 -15.10144256 18.23030801 -6.71679688 8.41381836 C-4.82880791 6.1972281 -2.99529106 3.99339229 -1.3046875 1.62109375 C-0.65886719 0.81865234 -0.65886719 0.81865234 0 0 Z " fill="#122DED" transform="translate(847,861)"/>
<path d="M0 0 C1.29860057 3.61196323 0.6928958 5.66252894 -0.6328125 9.20703125 C-1.01961182 10.25165527 -1.40641113 11.2962793 -1.80493164 12.37255859 C-2.2405542 13.50773926 -2.67617676 14.64291992 -3.125 15.8125 C-3.5780249 17.00955566 -4.0310498 18.20661133 -4.49780273 19.43994141 C-14.53006615 45.77761348 -26.09263446 71.42351853 -38.03588867 96.93963623 C-38.93640482 98.86409329 -39.83467859 100.78958033 -40.73242188 102.71533203 C-46.75756033 115.60448226 -53.14921394 128.20517279 -60.0546875 140.64453125 C-63.03485921 146.02359366 -65.86479308 151.47465914 -68.6875 156.9375 C-72.79801888 164.8492847 -77.15013968 172.54028668 -81.84326172 180.11914062 C-83.05903182 182.09598589 -84.25185409 184.08540294 -85.44140625 186.078125 C-100.3625579 210.97215933 -116.56504257 235.38012274 -136 257 C-136.51868652 257.58040039 -137.03737305 258.16080078 -137.57177734 258.75878906 C-143.06625497 264.88692165 -148.54049465 270.86175711 -155 276 C-158.53231179 271.27599133 -161.34872978 266.63103225 -163.875 261.3125 C-166.824154 255.25078056 -169.97383969 249.42342018 -173.45703125 243.6484375 C-178 235.85063291 -178 235.85063291 -178 232 C-178.66 232 -179.32 232 -180 232 C-180.50789062 230.96101562 -181.01578125 229.92203125 -181.5390625 228.8515625 C-184.97586318 221.87061354 -188.46289822 215.03814233 -192.5703125 208.421875 C-194.19156975 205.67548294 -195.59714594 202.86385752 -197 200 C-199.27787654 195.35526736 -201.76902942 190.94026959 -204.4765625 186.53515625 C-207.13673914 182.10834949 -209.56016294 177.55090174 -212 173 C-211.27635254 172.4423999 -211.27635254 172.4423999 -210.53808594 171.87353516 C-201.81622688 165.14447367 -193.14051549 158.39203504 -184.71875 151.2890625 C-182.02204423 149.01856023 -179.29750243 146.78665427 -176.5625 144.5625 C-172.6071691 141.33608008 -168.69887362 138.05886134 -164.8125 134.75 C-159.95345508 130.61427029 -155.02733018 126.57046983 -150.0625 122.5625 C-144.24291156 117.86343176 -138.52862487 113.06123087 -132.86962891 108.17041016 C-128.83850571 104.69450622 -124.72210729 101.3488561 -120.546875 98.046875 C-117.5532332 95.64094202 -114.61587545 93.17198535 -111.6875 90.6875 C-111.13884277 90.22206787 -110.59018555 89.75663574 -110.02490234 89.27709961 C-107.26968287 86.93632882 -104.51985557 84.5893689 -101.7734375 82.23828125 C-96.31359027 77.57634136 -90.80002891 73.02328644 -85.125 68.625 C-80.10757724 64.73567661 -75.27034145 60.68830677 -70.5 56.5 C-64.02808223 50.82018522 -57.35348243 45.46431091 -50.54443359 40.19628906 C-37.06031808 29.75174812 -24.19561306 18.55727903 -11.75390625 6.89453125 C-8.0076558 3.45987819 -5.10077084 1.14767344 0 0 Z " fill="#3636F1" transform="translate(1060,687)"/>
<path d="M0 0 C3.12753339 0.16905586 4.63476572 0.65832922 6.9375 2.8125 C9.97474522 7.50642443 11.20783794 12.51726941 12.6875 17.875 C12.99494141 18.93847656 13.30238281 20.00195312 13.61914062 21.09765625 C16.89025394 32.62170971 16.89025394 32.62170971 17 37 C15.59375 38.96875 15.59375 38.96875 13.5 40.5 C6.01936916 46.13924479 1.11309659 51.7047524 -2.83984375 60.21484375 C-3.25166397 61.07058487 -3.66348419 61.92632599 -4.08778381 62.80799866 C-5.38493936 65.51144227 -6.66144467 68.22404347 -7.9375 70.9375 C-8.81961005 72.785152 -9.70306137 74.63216429 -10.58789062 76.47851562 C-12.74082823 80.97843441 -14.87531687 85.48667625 -17 90 C-17.66 90 -18.32 90 -19 90 C-18.938125 91.27875 -18.87625 92.5575 -18.8125 93.875 C-18.70703125 96.0546875 -18.70703125 96.0546875 -19 98 C-20.485 98.99 -20.485 98.99 -22 100 C-21.46447039 94.17832932 -20.56074088 88.61546316 -19.1875 82.9375 C-17.46992468 75.56258693 -16.13913324 68.1628441 -14.9375 60.6875 C-13.76491911 53.40649846 -12.4725072 46.23002944 -10.71875 39.0625 C-9.85756081 35.39308521 -9.13253348 31.70364765 -8.4375 28 C-8.31036621 27.32727051 -8.18323242 26.65454102 -8.05224609 25.96142578 C-7.24860715 21.61250676 -6.63207773 17.26174779 -6.0625 12.875 C-5.25749572 7.37641147 -3.96574226 3.96574226 0 0 Z " fill="#6751F8" transform="translate(739,677)"/>
<path d="M0 0 C-0.55071304 7.7202708 -1.65849766 15.18849819 -3.1796875 22.7734375 C-3.39311798 23.85903961 -3.60654846 24.94464172 -3.82644653 26.06314087 C-4.27603778 28.34437131 -4.7282947 30.62507788 -5.18310547 32.90527344 C-5.8715249 36.35757298 -6.55171709 39.81141307 -7.23046875 43.265625 C-9.32526165 53.88219411 -11.42406972 64.48756249 -14 75 C-15.32 75 -16.64 75 -18 75 C-18.55384721 71.05340563 -19.10507814 67.10645487 -19.65405273 63.15917969 C-19.93144785 61.16843372 -20.21081912 59.17796343 -20.49023438 57.1875 C-21.85083675 47.39116291 -23.15249634 37.77459741 -23.0625 27.875 C-23.05347656 26.57304688 -23.04445313 25.27109375 -23.03515625 23.9296875 C-23.02355469 22.96289062 -23.01195312 21.99609375 -23 21 C-22.34 21 -21.68 21 -21 21 C-20.74476563 20.41951904 -20.48953125 19.83903809 -20.2265625 19.2409668 C-18.874786 16.77123023 -17.36983874 15.12670356 -15.375 13.14453125 C-14.66859375 12.44005859 -13.9621875 11.73558594 -13.234375 11.00976562 C-12.49703125 10.28466797 -11.7596875 9.55957031 -11 8.8125 C-10.26265625 8.07580078 -9.5253125 7.33910156 -8.765625 6.58007812 C-2.13106601 0 -2.13106601 0 0 0 Z " fill="#7059F8" transform="translate(703,645)"/>
<path d="M0 0 C2 3.75 2 3.75 2 6 C2.59296875 6.268125 3.1859375 6.53625 3.796875 6.8125 C10.85706242 10.61799109 16.47398029 18.56952525 21 25 C21 25.66 21 26.32 21 27 C21.66 27 22.32 27 23 27 C23.81146128 44.07074099 20.7886163 61.2026877 18 78 C16.515 78.495 16.515 78.495 15 79 C13.11798454 73.44738703 11.7307241 67.90236959 10.6875 62.1328125 C10.42685761 60.70980825 10.16532467 59.28696694 9.90307617 57.86425781 C9.76026215 57.08924927 9.61744812 56.31424072 9.4703064 55.51574707 C8.58762856 50.79415666 7.65929855 46.08141849 6.73828125 41.3671875 C6.13446648 38.25889427 5.5314378 35.1504492 4.9284668 32.04199219 C4.51427108 29.91240565 4.09822422 27.78317839 3.68041992 25.65429688 C3.06952245 22.53874355 2.46574793 19.42188058 1.86328125 16.3046875 C1.6758284 15.35778046 1.48837555 14.41087341 1.29524231 13.43527222 C0.42301817 8.88814606 -0.23016323 4.656342 0 0 Z " fill="#795EF9" transform="translate(548,643)"/>
<path d="M0 0 C6.27 0 12.54 0 19 0 C19 0.33 19 0.66 19 1 C13.94997778 2.03590199 9.12583611 2.10251672 4 2 C3.67 3.32 3.34 4.64 3 6 C2.01 5.67 1.02 5.34 0 5 C0 3.35 0 1.7 0 0 Z " fill="#7567F6" transform="translate(191,683)"/>
<path d="M0 0 C9.24 0 18.48 0 28 0 C28 1.65 28 3.3 28 5 C27.67 4.34 27.34 3.68 27 3 C25.35 3 23.7 3 22 3 C22 2.67 22 2.34 22 2 C14.74 1.67 7.48 1.34 0 1 C0 0.67 0 0.34 0 0 Z " fill="#7673F3" transform="translate(1034,683)"/>
<path d="M0 0 C0 0.33 0 0.66 0 1 C-1.15628906 1.09087891 -1.15628906 1.09087891 -2.3359375 1.18359375 C-3.84027344 1.30927734 -3.84027344 1.30927734 -5.375 1.4375 C-6.87160156 1.55931641 -6.87160156 1.55931641 -8.3984375 1.68359375 C-10.97927613 1.84965626 -10.97927613 1.84965626 -13 3 C-15.37783105 2.91161539 -17.75345146 2.75653579 -20.125 2.5625 C-21.40632812 2.46066406 -22.68765625 2.35882812 -24.0078125 2.25390625 C-25.48894531 2.12822266 -25.48894531 2.12822266 -27 2 C-27 1.67 -27 1.34 -27 1 C-17.98175113 -0.06996173 -9.06335876 -0.10234659 0 0 Z " fill="#6F6DF5" transform="translate(937,690)"/>
<path d="M0 0 C0.33 0 0.66 0 1 0 C1.33 2.64 1.66 5.28 2 8 C2.66 8 3.32 8 4 8 C4 9.65 4 11.3 4 13 C2.68 13 1.36 13 0 13 C0 8.71 0 4.42 0 0 Z " fill="#644CF6" transform="translate(685,707)"/>
<path d="M0 0 C1.5625 1.25 1.5625 1.25 3 3 C2.6875 5.1875 2.6875 5.1875 2 7 C1.34 7 0.68 7 0 7 C0.061875 8.27875 0.12375 9.5575 0.1875 10.875 C0.29296875 13.0546875 0.29296875 13.0546875 0 15 C-0.99 15.66 -1.98 16.32 -3 17 C-2.48517081 11.147205 -1.54642808 5.6702363 0 0 Z " fill="#6C5DF9" transform="translate(720,760)"/>
<path d="M0 0 C0.33 0 0.66 0 1 0 C1.50780894 2.20655075 2.00591365 4.41533605 2.5 6.625 C2.7784375 7.85476563 3.056875 9.08453125 3.34375 10.3515625 C3.94091621 13.67152228 4.12409534 16.63908451 4 20 C3.34 19.67 2.68 19.34 2 19 C1.65625 17.07421875 1.65625 17.07421875 1.5 14.6875 C1.32598781 12.05556556 1.14018687 10.27777769 -0.0546875 7.91015625 C-1.4461719 5.09843777 -0.67595825 2.97421629 0 0 Z " fill="#8670FA" transform="translate(516,684)"/>
<path d="M0 0 C7.26 0.33 14.52 0.66 22 1 C22 1.33 22 1.66 22 2 C19.08379545 2.24901747 16.16888923 2.47485086 13.25 2.6875 C12.425 2.76033203 11.6 2.83316406 10.75 2.90820312 C9.95078125 2.96298828 9.1515625 3.01777344 8.328125 3.07421875 C7.22839355 3.16062622 7.22839355 3.16062622 6.10644531 3.2487793 C4 3 4 3 0 0 Z " fill="#928AF4" transform="translate(399,695)"/>
<path d="M0 0 C2.97 0.495 2.97 0.495 6 1 C6.33 2.65 6.66 4.3 7 6 C4.03 5.01 1.06 4.02 -2 3 C-1.34 2.67 -0.68 2.34 0 2 C0 1.34 0 0.68 0 0 Z " fill="#E6E3F6" transform="translate(746,112)"/>
<path d="M0 0 C0.66 0.66 1.32 1.32 2 2 C1.625 5.625 1.625 5.625 1 9 C0.34 9 -0.32 9 -1 9 C-1.33 9.66 -1.66 10.32 -2 11 C-1.85892253 9.54119891 -1.71197585 8.08296449 -1.5625 6.625 C-1.48128906 5.81289063 -1.40007813 5.00078125 -1.31640625 4.1640625 C-1 2 -1 2 0 0 Z " fill="#5F57F8" transform="translate(699,868)"/>
<path d="M0 0 C0.33 0 0.66 0 1 0 C1.07654536 4.51617599 1.10228696 8.59085217 0 13 C-0.33 13 -0.66 13 -1 13 C-1.2236337 11.58566794 -1.42826476 10.16832382 -1.625 8.75 C-1.74101563 7.96109375 -1.85703125 7.1721875 -1.9765625 6.359375 C-2.00319395 3.67847541 -1.36592084 2.27305911 0 0 Z " fill="#988AF8" transform="translate(568,695)"/>
<path d="M0 0 C0.33 0.66 0.66 1.32 1 2 C1.66 2 2.32 2 3 2 C3 2.99 3 3.98 3 5 C3.99 5.66 4.98 6.32 6 7 C3.36 7 0.72 7 -2 7 C-1.01 6.67 -0.02 6.34 1 6 C0.67 4.02 0.34 2.04 0 0 Z " fill="#776AF8" transform="translate(624,1165)"/>
<path d="M0 0 C1.98 0.99 1.98 0.99 4 2 C3.34 4.31 2.68 6.62 2 9 C0.14223235 5.86501708 -0.20140476 3.62528568 0 0 Z " fill="#8A6EF8" transform="translate(760,589)"/>
<path d="M0 0 C1.32 0.33 2.64 0.66 4 1 C1.69 2.65 -0.62 4.3 -3 6 C-3 3 -3 3 -1.75 1.25 C-1.1725 0.8375 -0.595 0.425 0 0 Z " fill="#8369F9" transform="translate(509,677)"/>
<path d="M0 0 C0.33 0 0.66 0 1 0 C2.07421875 5.95703125 2.07421875 5.95703125 2 8 C1.01 8.99 0.02 9.98 -1 11 C-0.67 7.37 -0.34 3.74 0 0 Z " fill="#A28AF9" transform="translate(620,603)"/>
<path d="M0 0 C0.66 0 1.32 0 2 0 C2.33 1.98 2.66 3.96 3 6 C2.67 5.01 2.34 4.02 2 3 C0.68 3.99 -0.64 4.98 -2 6 C-1.125 1.125 -1.125 1.125 0 0 Z " fill="#A28BF8" transform="translate(625,576)"/>
</svg>
